<svg width="45" height="59" viewBox="0 0 45 59" fill="none" xmlns="http://www.w3.org/2000/svg">
<path d="M8.47168 11.4531L21.582 42.8252L34.7412 11.4531H38.7451V47H35.7422V31.5215L35.9863 15.6523L22.7539 47H20.4346L7.25098 15.7744L7.49512 31.4238V47H4.49219V11.4531H8.47168Z" fill="#28ACD8"/>
<path d="M11.0596 37.4053L12.1582 42.9229L13.501 37.6494L21.2158 11.4531H23.9258L31.543 37.6494L32.8613 42.9717L34.0332 37.4053L40.4541 11.4531H43.5303L34.4238 47H31.543L23.4863 19.1924L22.583 15.6768L21.7041 19.1924L13.4521 47H10.5713L1.48926 11.4531H4.56543L11.0596 37.4053Z" fill="#312E2E"/>
</svg>
